<svg width="18" height="18" viewBox="0 0 18 18" fill="none" xmlns="http://www.w3.org/2000/svg">
<path d="M11.496 9.3584C11.4965 9.45104 11.4788 9.54287 11.4437 9.62863C11.4087 9.71439 11.3571 9.79239 11.2919 9.85816L8.47635 12.6737C8.41072 12.7393 8.33281 12.7914 8.24706 12.8269C8.16131 12.8624 8.06941 12.8807 7.97659 12.8807C7.88378 12.8807 7.79188 12.8624 7.70613 12.8269C7.62038 12.7914 7.54247 12.7393 7.47684 12.6737C7.41121 12.608 7.35915 12.5301 7.32363 12.4444C7.28812 12.3586 7.26984 12.2667 7.26984 12.1739C7.26984 12.0811 7.28812 11.9892 7.32363 11.9035C7.35915 11.8177 7.41121 11.7398 7.47684 11.6742L9.80668 9.3584L7.56834 7.0356C7.49635 6.97085 7.43848 6.89194 7.39837 6.80381C7.35826 6.71568 7.33676 6.62021 7.33523 6.52339C7.3337 6.42657 7.35215 6.33047 7.38945 6.24111C7.42675 6.15175 7.48209 6.07105 7.552 6.00405C7.62191 5.93705 7.7049 5.8852 7.79577 5.85173C7.88663 5.81827 7.98343 5.80391 8.08009 5.80956C8.17676 5.81521 8.27122 5.84075 8.35757 5.88457C8.44392 5.9284 8.5203 5.98956 8.58193 6.06425L11.2989 8.87977C11.423 9.00849 11.4935 9.17962 11.496 9.3584Z" fill="#15192C"/>
</svg>
