<svg width="18" height="18" viewBox="0 0 18 18" fill="none" xmlns="http://www.w3.org/2000/svg">
<path fill-rule="evenodd" clip-rule="evenodd" d="M10.0202 3.53574C10.0202 2.95269 9.54743 2.47992 8.96439 2.47992C8.38134 2.47992 7.90857 2.95269 7.90857 3.53574C7.90857 4.11878 8.38134 4.59155 8.96439 4.59155C9.54743 4.59155 10.0202 4.11878 10.0202 3.53574Z" stroke="#92959E" stroke-width="1.05582" stroke-linecap="round" stroke-linejoin="round"/>
<path fill-rule="evenodd" clip-rule="evenodd" d="M10.0202 9.16676C10.0202 8.58372 9.54743 8.11095 8.96439 8.11095C8.38134 8.11095 7.90857 8.58372 7.90857 9.16676C7.90857 9.74981 8.38134 10.2226 8.96439 10.2226C9.54743 10.2226 10.0202 9.74981 10.0202 9.16676Z" stroke="#92959E" stroke-width="1.05582" stroke-linecap="round" stroke-linejoin="round"/>
<path fill-rule="evenodd" clip-rule="evenodd" d="M10.0202 14.7978C10.0202 14.2147 9.5478 13.742 8.96475 13.742C8.38134 13.742 7.90857 14.2147 7.90857 14.7978C7.90857 15.3808 8.38134 15.8536 8.96475 15.8536C9.5478 15.8536 10.0202 15.3808 10.0202 14.7978Z" stroke="#92959E" stroke-width="1.05582" stroke-linecap="round" stroke-linejoin="round"/>
</svg>
