<svg width="18" height="17" viewBox="0 0 18 17" fill="none" xmlns="http://www.w3.org/2000/svg">
<path d="M9.20916 10.9581C9.11653 10.9586 9.0247 10.9409 8.93894 10.9058C8.85318 10.8708 8.77518 10.8192 8.70941 10.754L5.89389 7.93845C5.82827 7.87282 5.77621 7.7949 5.74069 7.70916C5.70517 7.62341 5.68689 7.5315 5.68689 7.43869C5.68689 7.34588 5.70517 7.25397 5.74069 7.16823C5.77621 7.08248 5.82827 7.00457 5.89389 6.93894C5.95952 6.87331 6.03744 6.82125 6.12318 6.78573C6.20893 6.75021 6.30084 6.73193 6.39365 6.73193C6.48646 6.73193 6.57837 6.75021 6.66411 6.78573C6.74986 6.82125 6.82777 6.87331 6.8934 6.93894L9.20916 9.26878L11.532 7.03044C11.5967 6.95844 11.6756 6.90058 11.7638 6.86047C11.8519 6.82036 11.9474 6.79886 12.0442 6.79733C12.141 6.79579 12.2371 6.81425 12.3265 6.85155C12.4158 6.88885 12.4965 6.94419 12.5635 7.0141C12.6305 7.08401 12.6824 7.167 12.7158 7.25786C12.7493 7.34873 12.7637 7.44552 12.758 7.54219C12.7524 7.63886 12.7268 7.73332 12.683 7.81967C12.6392 7.90602 12.578 7.9824 12.5033 8.04403L9.6878 10.761C9.55908 10.8851 9.38795 10.9556 9.20916 10.9581Z" fill="#15192C"/>
</svg>
