<svg width="142" height="47" viewBox="0 0 142 47" fill="none" xmlns="http://www.w3.org/2000/svg">
<path d="M56.3214 32.1059V15.0659H59.2014L67.5294 27.3059H67.5774V15.0659H70.4574V32.1059H67.5054L59.2734 20.0819H59.2254V32.1059H56.3214ZM77.9621 32.2979C75.0341 32.2979 73.5701 30.7059 73.5701 27.5219V20.3939H76.2581V26.8019C76.2581 27.9379 76.4341 28.7299 76.7861 29.1779C77.1541 29.6259 77.7541 29.8499 78.5861 29.8499C79.4181 29.8499 80.1221 29.5139 80.6981 28.8419C81.2901 28.1539 81.5861 27.2099 81.5861 26.0099V20.3939H84.2741V32.1059H81.5861V30.6419L81.5381 30.6179C80.6101 31.7379 79.4181 32.2979 77.9621 32.2979ZM92.4851 32.2979C90.7411 32.2979 89.3091 31.7379 88.1891 30.6179C87.0691 29.4979 86.5091 28.0499 86.5091 26.2739C86.5091 24.4819 87.0771 23.0259 88.2131 21.9059C89.3491 20.7859 90.8051 20.2259 92.5811 20.2259C93.5251 20.2259 94.4371 20.4179 95.3171 20.8019C96.1971 21.1699 96.9251 21.7059 97.5011 22.4099L95.6771 23.9939C94.9091 23.0979 93.9251 22.6499 92.7251 22.6499C91.6851 22.6499 90.8451 22.9859 90.2051 23.6579C89.5651 24.3139 89.2451 25.1779 89.2451 26.2499C89.2451 27.3219 89.5651 28.1939 90.2051 28.8659C90.8451 29.5219 91.6851 29.8499 92.7251 29.8499C94.0051 29.8499 94.9891 29.3939 95.6771 28.4819L97.5251 30.1139C96.4051 31.5699 94.7251 32.2979 92.4851 32.2979ZM99.6665 32.1059V14.4419H102.355V32.1059H99.6665ZM116.262 26.1059C116.262 26.4099 116.238 26.7539 116.19 27.1379H107.646C107.822 27.9859 108.206 28.6499 108.798 29.1299C109.406 29.6099 110.166 29.8499 111.078 29.8499C112.31 29.8499 113.294 29.3939 114.03 28.4819L115.902 30.0899C114.766 31.5619 113.11 32.2979 110.934 32.2979C109.142 32.2979 107.678 31.7459 106.542 30.6419C105.422 29.5379 104.862 28.0739 104.862 26.2499C104.862 24.4579 105.406 23.0099 106.494 21.9059C107.598 20.7859 109.014 20.2259 110.742 20.2259C112.374 20.2259 113.702 20.7779 114.726 21.8819C115.75 22.9859 116.262 24.3939 116.262 26.1059ZM112.566 23.2979C112.086 22.8659 111.47 22.6499 110.718 22.6499C109.966 22.6499 109.318 22.8579 108.774 23.2739C108.246 23.6899 107.886 24.2739 107.694 25.0259H113.55C113.374 24.2899 113.046 23.7139 112.566 23.2979ZM122.706 32.2979C119.778 32.2979 118.314 30.7059 118.314 27.5219V20.3939H121.002V26.8019C121.002 27.9379 121.178 28.7299 121.53 29.1779C121.898 29.6259 122.498 29.8499 123.33 29.8499C124.162 29.8499 124.866 29.5139 125.442 28.8419C126.034 28.1539 126.33 27.2099 126.33 26.0099V20.3939H129.018V32.1059H126.33V30.6419L126.282 30.6179C125.354 31.7379 124.162 32.2979 122.706 32.2979ZM135.693 32.2979C133.821 32.2979 132.245 31.7299 130.965 30.5939L132.309 28.5779C133.237 29.4899 134.365 29.9459 135.693 29.9459C136.205 29.9459 136.605 29.8419 136.893 29.6339C137.181 29.4259 137.325 29.1459 137.325 28.7939C137.325 28.5219 137.157 28.2979 136.821 28.1219C136.501 27.9299 135.901 27.6819 135.021 27.3779C133.869 26.9779 132.981 26.4979 132.357 25.9379C131.749 25.3779 131.445 24.5779 131.445 23.5379C131.445 22.5779 131.829 21.7859 132.597 21.1619C133.381 20.5379 134.373 20.2259 135.573 20.2259C137.125 20.2259 138.501 20.7139 139.701 21.6899L138.357 23.8019C137.477 22.9699 136.501 22.5539 135.429 22.5539C135.109 22.5539 134.813 22.6419 134.541 22.8179C134.285 22.9779 134.157 23.2259 134.157 23.5619C134.157 24.0419 134.773 24.5139 136.005 24.9779C137.525 25.5699 138.477 26.0019 138.861 26.2739C139.661 26.8339 140.061 27.6579 140.061 28.7459C140.061 29.7859 139.685 30.6419 138.933 31.3139C138.197 31.9699 137.117 32.2979 135.693 32.2979Z" fill="#551FFF"/>
<ellipse cx="23.0529" cy="23.0529" rx="7.67401" ry="24.9277" transform="rotate(-45 23.0529 23.0529)" stroke="#551FFF" stroke-width="3"/>
<ellipse cx="23.053" cy="23.0529" rx="7.67401" ry="24.9277" transform="rotate(45 23.053 23.0529)" stroke="#551FFF" stroke-width="3"/>
<circle cx="23.053" cy="23.0529" r="3.56111" stroke="#551FFF" stroke-width="3"/>
</svg>
